<?xml version="1.0" standalone="no"?>
<!DOCTYPE svg PUBLIC "-//W3C//DTD SVG 20010904//EN"
 "http://www.w3.org/TR/2001/REC-SVG-20010904/DTD/svg10.dtd">
<svg version="1.0" xmlns="http://www.w3.org/2000/svg"
 width="1468.000000pt" height="776.000000pt" viewBox="0 0 1468.000000 776.000000"
 preserveAspectRatio="xMidYMid meet">

<g transform="translate(0.000000,776.000000) scale(0.100000,-0.100000)"
fill="#000000" stroke="none">
<path d="M2422 7727 c-122 -98 -292 -254 -292 -268 0 -19 314 -269 338 -269
28 1 344 249 340 268 -3 16 -293 273 -329 293 -12 6 -28 0 -57 -24z"/>
<path d="M13230 7500 c-102 -89 -160 -147 -160 -160 0 -20 307 -270 332 -270
24 0 333 244 336 266 2 16 -35 53 -163 162 -91 78 -170 142 -175 142 -6 0 -82
-63 -170 -140z"/>
<path d="M11685 7438 c-181 -105 -387 -185 -540 -208 -44 -7 -86 -14 -93 -16
-25 -7 -25 -35 2 -63 42 -44 35 -68 -64 -209 -185 -264 -360 -587 -453 -837
-43 -116 -137 -420 -137 -442 0 -7 -46 -13 -127 -17 -168 -7 -424 -24 -492
-33 l-54 -6 129 122 c71 67 219 206 329 309 291 272 292 272 341 376 72 152
80 231 40 389 -28 108 -43 141 -97 215 -31 41 -46 52 -67 52 -39 0 -52 -17
-52 -66 0 -122 -107 -315 -309 -558 -127 -153 -261 -295 -634 -674 -348 -352
-387 -398 -387 -454 0 -46 49 -126 122 -202 71 -74 75 -76 121 -76 31 0 65 9
97 25 63 32 221 70 371 89 124 16 555 40 568 31 5 -3 5 -22 1 -42 -36 -165
-52 -522 -29 -663 13 -87 58 -179 111 -233 63 -63 137 -96 245 -109 81 -11 94
-10 117 5 34 23 33 50 -4 95 -54 69 -80 189 -80 375 1 151 33 480 50 507 14
22 214 -58 307 -121 49 -34 73 -36 97 -10 16 18 16 30 -4 212 -11 107 -25 211
-31 232 -13 50 -65 87 -180 128 -49 17 -89 36 -89 41 0 47 157 595 203 709 44
108 150 319 218 435 88 150 237 341 440 565 110 122 127 148 108 160 -19 12
-15 13 -94 -33z"/>
<path d="M2402 6853 c-49 -73 -144 -167 -200 -200 -23 -14 -94 -47 -158 -73
-209 -88 -310 -173 -384 -323 -74 -151 -70 -29 -70 -2046 0 -1482 -2 -1810
-13 -1825 -18 -24 -171 -34 -244 -17 -77 19 -123 77 -123 156 0 35 -21 65 -46
65 -7 0 -49 -32 -91 -71 -105 -96 -207 -171 -333 -247 -167 -101 -278 -151
-632 -286 -92 -35 -98 -39 -98 -66 0 -20 6 -29 23 -34 42 -11 2084 -7 2114 5
15 5 31 16 35 22 4 7 8 930 8 2052 0 1922 1 2042 18 2074 36 71 52 76 252 76
200 0 213 -4 251 -75 18 -33 19 -95 19 -1575 0 -1448 1 -1542 18 -1567 9 -15
98 -100 197 -189 99 -90 180 -166 180 -171 0 -4 -83 -80 -185 -169 -102 -89
-191 -170 -198 -181 -11 -15 -13 -79 -10 -311 5 -328 10 -358 85 -486 74 -126
166 -201 396 -327 129 -70 236 -153 296 -228 24 -31 52 -58 63 -61 14 -5 38
14 101 78 93 95 151 137 319 227 254 136 414 312 448 490 5 29 10 179 10 334
l0 280 -62 60 c-152 145 -271 246 -288 246 -26 0 -430 -366 -430 -389 0 -11
38 -54 90 -101 l90 -82 0 -97 c0 -113 -22 -170 -80 -209 -33 -22 -41 -23 -197
-20 -156 3 -162 4 -189 28 -46 43 -64 95 -64 193 0 85 1 88 33 121 17 19 264
239 549 490 284 250 526 468 537 482 l21 27 0 1398 c0 1349 1 1401 19 1449 28
74 99 167 198 259 73 69 85 85 77 99 -6 9 -50 40 -98 67 -103 60 -320 216
-429 310 -91 77 -179 185 -243 296 -48 82 -70 102 -107 97 l-22 -3 -5 -1862
c-5 -1855 -5 -1862 -25 -1889 -12 -15 -68 -69 -126 -120 l-105 -92 -137 119
-136 119 -3 1443 c-4 1617 3 1478 -79 1645 -28 58 -60 103 -102 146 -72 72
-114 99 -267 166 -165 72 -254 142 -349 273 -26 35 -49 57 -61 57 -12 0 -33
-21 -58 -57z"/>
<path d="M4715 6891 c-7 -13 73 -72 151 -110 130 -65 -35 -61 2442 -61 1795 0
2252 3 2252 13 0 24 -158 116 -255 148 -33 11 -441 14 -2312 17 -1473 1 -2274
-1 -2278 -7z"/>
<path d="M11610 6876 c-31 -6 -71 -21 -90 -32 -37 -21 -91 -107 -76 -121 4 -4
663 -7 1464 -5 1592 2 1508 -1 1629 61 69 35 143 87 143 101 0 15 -2998 12
-3070 -4z"/>
<path d="M7392 6393 c-22 -20 -195 -513 -190 -542 3 -14 34 -18 213 -28 228
-12 380 -32 496 -64 100 -27 204 -67 231 -88 21 -18 20 -18 -128 -137 -428
-342 -716 -624 -798 -781 l-17 -33 -141 0 c-81 0 -158 5 -182 12 -55 16 -140
101 -155 154 -7 26 -11 214 -11 550 0 497 -1 511 -20 532 -11 12 -37 26 -58
31 -97 26 -495 121 -508 121 -12 0 -14 -97 -14 -687 0 -379 -4 -694 -9 -701
-6 -11 -54 -13 -227 -10 -204 3 -222 5 -261 25 -46 25 -84 69 -108 126 -22 54
-22 480 1 558 53 179 176 313 398 434 93 50 108 73 77 115 -28 39 -130 118
-191 148 -49 24 -66 27 -161 27 -104 0 -107 -1 -190 -42 -109 -55 -197 -122
-330 -253 -94 -93 -112 -116 -153 -200 -69 -141 -75 -189 -76 -606 0 -211 4
-374 11 -409 23 -125 104 -234 217 -291 l57 -29 366 0 365 0 77 38 c49 24 90
53 114 81 l37 43 52 -53 c29 -28 78 -65 111 -80 l58 -29 330 0 331 0 76 38
c50 24 91 53 116 82 l40 45 25 -34 c14 -18 50 -49 79 -69 108 -71 19 -67 1439
-67 1141 0 1278 2 1289 16 21 24 -1 37 -170 102 -192 74 -302 124 -422 195
-101 60 -252 173 -307 231 -56 58 -101 42 -101 -36 0 -19 -7 -44 -16 -56 -37
-53 -28 -52 -648 -52 -395 0 -577 3 -581 11 -9 14 14 39 115 123 152 127 427
302 723 460 77 41 111 65 118 83 11 30 -4 132 -32 216 -133 394 -628 723
-1184 787 -124 14 -150 13 -173 -7z"/>
<path d="M12490 6180 c-114 -18 -224 -75 -335 -174 -65 -58 -78 -51 -85 41
l-5 68 -33 -3 c-49 -4 -535 -123 -549 -134 -10 -8 -13 -158 -13 -690 0 -557
-2 -685 -14 -712 -9 -22 -39 -51 -89 -87 -42 -30 -76 -59 -76 -65 -1 -18 77
-84 123 -104 63 -28 167 -43 274 -38 86 3 104 7 158 36 100 54 188 153 215
244 6 21 10 243 9 595 0 309 2 573 6 588 9 36 217 185 258 185 57 0 145 -32
186 -67 48 -41 86 -111 101 -185 18 -93 24 -101 69 -94 22 3 122 31 222 61
100 30 186 55 190 55 5 0 8 -242 8 -538 0 -598 0 -598 66 -698 19 -29 58 -68
87 -88 97 -66 112 -69 422 -73 154 -3 366 0 470 5 176 8 194 11 247 36 123 58
212 177 225 299 l6 55 -369 4 c-407 4 -404 4 -480 70 -75 66 -74 51 -74 628 0
490 -1 517 -19 546 -11 19 -33 36 -53 43 -60 19 -475 111 -502 111 -25 0 -26
-1 -26 -65 l0 -66 -62 52 c-143 119 -380 186 -558 159z"/>
<path d="M10667 3680 c-76 -13 -185 -49 -264 -85 -192 -89 -370 -258 -461
-440 -62 -124 -110 -336 -83 -368 9 -11 54 -16 179 -21 379 -16 517 -49 612
-147 51 -53 74 -114 68 -180 -6 -58 -28 -92 -87 -134 l-43 -30 -256 0 -257 0
-60 28 c-33 15 -84 46 -114 69 l-54 41 6 -71 6 -72 -117 0 c-158 1 -210 21
-251 95 -14 26 -17 88 -21 492 -5 458 -5 463 -27 484 -15 16 -87 39 -259 85
-131 35 -244 64 -251 64 -11 0 -13 -111 -13 -593 0 -563 -1 -595 -18 -610 -26
-24 -287 -24 -355 -1 -54 18 -92 58 -107 112 -6 23 -10 223 -10 532 -1 519 0
514 -45 537 -34 18 -497 134 -512 129 -12 -5 -13 -118 -11 -708 l3 -703 31
-65 c37 -78 103 -146 181 -186 l58 -29 295 0 c286 0 297 1 344 23 60 27 134
86 148 118 10 22 12 21 62 -31 98 -99 186 -125 441 -125 257 0 371 32 456 128
l41 47 62 -61 c43 -42 80 -68 121 -85 l60 -24 580 0 580 1 45 23 c61 32 106
69 136 113 l26 36 36 -40 c43 -47 102 -89 159 -111 60 -24 524 -26 598 -3 62
19 153 81 180 122 l20 30 50 -52 c28 -28 75 -64 105 -80 52 -26 66 -28 225
-35 94 -4 463 -4 820 0 l650 6 58 27 c129 61 218 200 208 325 -1 10 -163 13
-739 15 l-739 3 -41 29 c-27 19 -51 47 -68 82 l-27 54 6 203 c6 220 20 306 67
419 51 123 150 228 214 228 62 0 140 -114 153 -222 4 -31 12 -52 21 -56 21 -8
493 150 500 167 8 21 -51 128 -104 189 -59 67 -156 136 -242 172 -202 85 -476
81 -669 -10 -202 -94 -374 -290 -429 -487 -13 -47 -16 -120 -18 -390 l-1 -332
-25 -26 -25 -26 -150 3 c-174 4 -209 15 -260 87 l-30 43 0 514 c0 508 0 514
-21 534 -15 16 -90 39 -270 86 -137 35 -255 64 -261 64 -10 0 -13 -133 -13
-630 0 -667 -1 -677 -45 -694 -17 -6 -395 -9 -395 -2 0 2 31 68 69 147 38 79
75 163 81 186 28 94 -19 197 -120 263 -102 65 -238 102 -540 145 -102 15 -195
33 -208 41 -28 19 -44 58 -36 90 19 75 343 267 491 291 68 11 113 -26 113 -94
0 -99 74 -189 127 -155 13 8 83 367 83 426 0 33 -4 39 -37 53 -44 19 -303 28
-386 13z"/>
<path d="M5325 3571 c-319 -99 -416 -133 -425 -151 -6 -12 -10 -235 -10 -613
0 -406 -3 -604 -11 -626 -7 -20 -34 -49 -80 -82 -40 -30 -69 -59 -69 -70 0
-24 68 -80 126 -103 36 -14 84 -20 182 -24 l133 -4 64 31 c79 39 154 110 192
182 l28 54 3 514 c2 352 6 519 14 528 8 9 46 13 142 13 117 0 136 -3 181 -24
28 -13 67 -41 87 -62 67 -71 68 -75 68 -448 0 -235 4 -343 12 -361 15 -33 484
-425 509 -425 19 0 19 16 19 648 0 491 3 651 12 660 8 8 54 12 143 12 153 0
205 -13 259 -66 74 -72 70 -42 76 -609 l5 -510 27 -73 c39 -108 83 -176 173
-267 80 -81 217 -180 291 -211 72 -31 138 -44 220 -44 97 0 166 19 231 63 45
32 113 108 113 128 0 5 -28 23 -62 40 -114 58 -185 109 -260 187 -79 83 -125
154 -160 249 -22 57 -22 73 -28 638 l-5 580 -29 58 c-38 75 -99 130 -194 175
l-77 37 -250 0 c-239 0 -252 -1 -299 -23 -71 -32 -129 -83 -174 -152 l-39 -60
-31 49 c-36 59 -129 131 -210 162 -47 18 -83 23 -207 26 -272 9 -386 -11 -483
-84 -48 -36 -66 -28 -72 32 -6 62 -14 64 -135 26z"/>
<path d="M10160 1229 c-178 -157 -210 -187 -210 -198 0 -14 321 -271 338 -271
24 0 342 250 342 269 0 18 -323 301 -343 301 -7 0 -64 -46 -127 -101z"/>
<path d="M4743 1076 c21 -19 68 -50 105 -69 138 -72 -58 -67 2436 -67 1481 0
2246 3 2246 10 0 14 -74 66 -142 101 -125 63 45 59 -2428 59 l-2255 -1 38 -33z"/>
<path d="M11398 1085 c-95 -26 -258 -118 -258 -145 0 -7 542 -9 1638 -8 l1637
3 75 33 c79 34 181 100 188 120 6 18 -3214 16 -3280 -3z"/>
<path d="M3401 429 c-89 -77 -161 -147 -161 -154 0 -14 310 -267 334 -273 18
-4 340 247 344 267 3 19 -317 301 -342 301 -8 0 -87 -63 -175 -141z"/>
</g>
</svg>
