<?xml version="1.0" standalone="no"?>
<!DOCTYPE svg PUBLIC "-//W3C//DTD SVG 20010904//EN"
 "http://www.w3.org/TR/2001/REC-SVG-20010904/DTD/svg10.dtd">
<svg version="1.0" xmlns="http://www.w3.org/2000/svg"
 width="653.000000pt" height="100.000000pt" viewBox="0 0 653.000000 100.000000"
 preserveAspectRatio="xMidYMid meet">

<g transform="translate(0.000000,100.000000) scale(0.100000,-0.100000)"
fill="#000000" stroke="none">
<path d="M691 989 c-85 -17 -189 -75 -256 -143 -193 -197 -193 -495 0 -692
290 -296 787 -137 857 274 56 333 -259 628 -601 561z m233 -275 c92 -18 197
-57 221 -84 20 -22 17 -59 -6 -73 -13 -8 -32 -4 -76 16 -95 43 -171 59 -303
64 -92 4 -145 1 -199 -11 -90 -19 -114 -11 -109 37 3 27 9 34 42 45 97 32 280
34 430 6z m6 -183 c36 -12 85 -32 110 -44 38 -20 45 -28 45 -53 0 -39 -23 -42
-94 -10 -31 14 -83 32 -116 41 -70 18 -242 20 -314 3 -40 -9 -53 -9 -66 2 -18
15 -20 46 -3 56 63 39 325 42 438 5z m-18 -164 c110 -40 143 -72 101 -95 -11
-7 -34 -1 -77 19 -90 42 -188 54 -314 39 -112 -13 -138 -7 -116 28 30 47 288
53 406 9z"/>
<path d="M2877 752 c-33 -36 -8 -92 40 -92 25 0 53 30 53 57 0 46 -62 69 -93
35z"/>
<path d="M3789 755 c-29 -16 -49 -60 -49 -106 0 -26 -3 -29 -35 -29 -28 0 -35
-4 -35 -20 0 -16 7 -20 35 -20 l35 0 0 -155 0 -155 25 0 25 0 0 155 0 155 45
0 c38 0 45 3 45 20 0 17 -7 20 -45 20 l-45 0 0 38 c0 47 24 72 69 72 26 0 32
4 29 18 -4 22 -64 27 -99 7z"/>
<path d="M5450 755 c-18 -22 -1 -50 31 -50 20 0 24 5 24 30 0 23 -5 31 -21 33
-11 2 -27 -4 -34 -13z"/>
<path d="M3091 736 c-30 -16 -50 -52 -51 -88 0 -21 -5 -28 -20 -28 -17 0 -20
-7 -20 -40 0 -33 3 -40 20 -40 19 0 20 -7 20 -135 l0 -135 45 0 45 0 0 136 0
135 36 -3 36 -3 56 -132 c47 -114 53 -135 41 -149 -9 -11 -23 -14 -46 -11 -29
5 -35 2 -48 -23 -14 -27 -14 -30 2 -38 64 -34 140 -16 168 38 19 36 155 381
155 392 0 4 -20 8 -44 8 l-44 0 -43 -121 -43 -122 -46 119 -46 119 -68 3 c-63
3 -67 4 -64 25 2 18 10 23 46 25 40 3 42 4 42 36 0 26 -5 35 -22 40 -37 9 -81
6 -107 -8z"/>
<path d="M1538 709 c-45 -23 -68 -64 -68 -120 0 -57 45 -102 126 -124 96 -26
124 -41 124 -69 0 -34 -26 -51 -80 -50 -32 0 -62 9 -92 27 l-45 26 -29 -30
c-29 -30 -29 -31 -9 -46 74 -57 205 -76 273 -40 90 48 96 179 10 223 -18 9
-61 25 -96 35 -72 20 -92 33 -92 60 0 50 73 64 148 27 l45 -21 18 24 c27 34
20 51 -31 77 -58 29 -149 30 -202 1z"/>
<path d="M4721 708 c-5 -13 -48 -117 -95 -231 -84 -206 -85 -208 -59 -205 22
3 30 13 52 71 l26 67 112 0 111 0 28 -70 c23 -60 31 -70 51 -70 14 0 23 4 21
9 -1 5 -43 109 -93 230 -87 213 -91 221 -118 221 -19 0 -30 -7 -36 -22z m84
-142 c25 -59 45 -110 45 -112 0 -2 -42 -4 -94 -4 l-94 0 46 115 c25 63 47 113
49 112 1 -2 23 -52 48 -111z"/>
<path d="M5280 701 c0 -55 -16 -81 -50 -81 -23 0 -30 -4 -30 -20 0 -16 7 -20
35 -20 l35 0 0 -107 c0 -142 11 -180 56 -199 43 -18 84 -9 84 18 0 15 -5 18
-20 13 -13 -4 -31 0 -45 9 -24 16 -25 20 -25 141 l0 125 45 0 c38 0 45 3 45
20 0 17 -7 20 -44 20 l-45 0 -3 52 c-2 41 -7 54 -20 56 -14 3 -18 -3 -18 -27z"/>
<path d="M5875 718 c-2 -7 -6 -31 -7 -53 -3 -37 -5 -40 -35 -43 -25 -2 -33 -8
-33 -23 0 -15 7 -19 35 -19 l35 0 0 -120 c0 -138 11 -171 61 -189 41 -14 79
-5 79 21 0 15 -5 18 -20 13 -13 -4 -31 0 -45 9 -24 16 -25 20 -25 141 l0 125
46 0 c38 0 45 3 42 18 -2 12 -15 18 -45 20 l-42 3 -3 52 c-2 40 -7 53 -21 55
-9 2 -19 -2 -22 -10z"/>
<path d="M2650 665 c0 -38 -3 -45 -20 -45 -17 0 -20 -7 -20 -40 0 -33 3 -40
20 -40 19 0 20 -7 20 -95 0 -124 14 -159 69 -176 28 -8 51 -9 73 -3 29 8 33
14 36 48 3 38 3 38 -28 31 -51 -11 -60 5 -60 106 l0 89 45 0 45 0 0 40 0 40
-45 0 -45 0 0 45 0 45 -45 0 -45 0 0 -45z"/>
<path d="M1847 613 c-4 -3 -7 -105 -7 -225 l0 -218 45 0 45 0 0 66 c0 36 3 64
8 62 89 -46 141 -46 200 -1 87 66 84 231 -5 297 -41 30 -124 33 -167 6 l-36
-22 0 21 c0 18 -6 21 -38 21 -21 0 -42 -3 -45 -7z m238 -98 c43 -42 30 -140
-22 -164 -64 -29 -122 6 -130 80 -4 38 -1 50 22 77 35 42 93 45 130 7z"/>
<path d="M2331 602 c-134 -68 -132 -262 3 -323 117 -53 252 19 264 141 2 27 2
60 -2 74 -9 36 -65 96 -103 112 -45 19 -121 17 -162 -4z m153 -93 c37 -44 36
-101 -3 -140 -90 -90 -217 42 -135 140 21 26 33 31 69 31 36 0 48 -5 69 -31z"/>
<path d="M2870 446 l0 -176 45 0 45 0 -2 173 -3 172 -42 3 -43 3 0 -175z"/>
<path d="M3959 597 c-56 -38 -79 -81 -79 -149 0 -35 7 -75 16 -95 54 -112 222
-124 296 -21 19 28 23 45 23 110 0 85 -14 114 -75 156 -46 31 -134 31 -181 -1z
m161 -36 c79 -54 78 -192 -2 -241 -114 -69 -239 54 -184 183 33 79 118 105
186 58z"/>
<path d="M4270 445 c0 -168 1 -175 20 -175 18 0 20 7 20 88 0 164 23 212 100
212 36 0 40 2 40 25 0 38 -58 35 -105 -6 l-35 -31 0 31 c0 24 -4 31 -20 31
-19 0 -20 -7 -20 -175z"/>
<path d="M4997 614 c-4 -4 -7 -83 -7 -176 l0 -168 24 0 c24 0 24 0 28 126 3
124 3 126 31 150 18 15 41 24 63 24 30 0 34 3 34 25 0 21 -5 25 -27 25 -32 0
-92 -34 -94 -52 -1 -7 -4 0 -8 17 -6 28 -29 44 -44 29z"/>
<path d="M5460 445 c0 -168 1 -175 20 -175 19 0 20 7 20 175 0 168 -1 175 -20
175 -19 0 -20 -7 -20 -175z"/>
<path d="M5598 604 c-34 -18 -48 -43 -48 -87 0 -45 33 -74 106 -94 33 -8 67
-22 77 -30 40 -37 3 -93 -62 -93 -41 0 -91 31 -91 56 0 15 -18 18 -37 6 -18
-12 5 -52 47 -80 29 -20 44 -23 89 -19 46 3 59 9 83 36 58 65 25 138 -75 161
-29 7 -62 19 -74 26 -42 26 -23 81 34 98 29 9 89 -17 97 -42 5 -14 13 -18 26
-15 28 7 25 20 -14 59 -30 30 -40 34 -82 34 -27 -1 -61 -7 -76 -16z"/>
<path d="M6088 604 c-34 -18 -48 -43 -48 -87 0 -45 33 -74 106 -94 33 -8 67
-22 77 -30 40 -37 3 -93 -62 -93 -41 0 -91 31 -91 56 0 18 -29 18 -36 0 -16
-41 56 -96 124 -96 76 0 122 42 122 111 0 41 -39 74 -103 89 -29 7 -62 19 -74
26 -42 26 -23 81 34 98 29 9 89 -17 97 -42 5 -14 13 -18 26 -15 24 6 23 5 8
38 -7 15 -24 33 -39 41 -36 18 -106 17 -141 -2z"/>
<path d="M3528 373 c7 -3 16 -2 19 1 4 3 -2 6 -13 5 -11 0 -14 -3 -6 -6z"/>
<path d="M3492 358 c-7 -7 -11 -23 -11 -37 l2 -26 4 25 c3 14 10 31 15 38 13
15 6 16 -10 0z"/>
<path d="M3510 328 c0 -34 45 -35 48 -2 1 19 -3 24 -23 24 -19 0 -25 -5 -25
-22z m40 8 c0 -11 -19 -15 -25 -6 -3 5 1 10 9 10 9 0 16 -2 16 -4z"/>
<path d="M3578 317 c-3 -19 -2 -25 4 -19 6 6 8 18 6 28 -3 14 -5 12 -10 -9z"/>
</g>
</svg>
